<?xml version="1.0" encoding="UTF-8" standalone="no"?>
<!-- Created with Inkscape (http://www.inkscape.org/) -->

<svg
   xmlns:dc="http://purl.org/dc/elements/1.1/"
   xmlns:cc="http://creativecommons.org/ns#"
   xmlns:rdf="http://www.w3.org/1999/02/22-rdf-syntax-ns#"
   xmlns:svg="http://www.w3.org/2000/svg"
   xmlns="http://www.w3.org/2000/svg"
   xmlns:sodipodi="http://sodipodi.sourceforge.net/DTD/sodipodi-0.dtd"
   xmlns:inkscape="http://www.inkscape.org/namespaces/inkscape"
   version="1.1"
   id="svg29"
   xml:space="preserve"
   width="100mm"
   height="30mm"
   viewBox="0 0 377.95277 113.38582"
   sodipodi:docname="sticker.svg"
   inkscape:version="0.92.2 (5c3e80d, 2017-08-06)"
   inkscape:export-filename="sticker.png"
   inkscape:export-xdpi="399.99908"
   inkscape:export-ydpi="399.99908"><metadata
     id="metadata35"><rdf:RDF><cc:Work
         rdf:about=""><dc:format>image/svg+xml</dc:format><dc:type
           rdf:resource="http://purl.org/dc/dcmitype/StillImage" /><dc:title></dc:title></cc:Work></rdf:RDF></metadata><defs
     id="defs33"><clipPath
       clipPathUnits="userSpaceOnUse"
       id="clipPath45"><path
         d="M 0,459 H 679 V 0 H 0 Z"
         id="path43"
         inkscape:connector-curvature="0" /></clipPath><meshgradient
       inkscape:collect="always"
       id="meshgradient120"
       gradientUnits="userSpaceOnUse"
       x="137.80019"
       y="172.67902"><meshrow
         id="meshrow122"><meshpatch
           id="meshpatch124"><stop
             path="c 134.467,0  268.933,0  403.4,0"
             style="stop-color:#ffffff;stop-opacity:1"
             id="stop126" /><stop
             path="c 0,37.8805  0,75.7609  0,113.641"
             style="stop-color:#000000;stop-opacity:1"
             id="stop128" /><stop
             path="c -134.467,0  -268.933,0  -403.4,0"
             style="stop-color:#ffffff;stop-opacity:1"
             id="stop130" /><stop
             path="c 0,-37.8805  0,-75.7609  0,-113.641"
             style="stop-color:#000000;stop-opacity:1"
             id="stop132" /></meshpatch></meshrow></meshgradient><meshgradient
       inkscape:collect="always"
       id="meshgradient204"
       gradientUnits="userSpaceOnUse"
       x="137.80019"
       y="172.67902"><meshrow
         id="meshrow216"><meshpatch
           id="meshpatch214"><stop
             id="stop206"
             style="stop-color:#ffffff;stop-opacity:1"
             path="c 134.467,0  268.933,0  403.4,0" /><stop
             id="stop208"
             style="stop-color:#000000;stop-opacity:1"
             path="c 0,37.8805  0,75.7609  0,113.641" /><stop
             id="stop210"
             style="stop-color:#ffffff;stop-opacity:1"
             path="c -134.467,0  -268.933,0  -403.4,0" /><stop
             id="stop212"
             style="stop-color:#000000;stop-opacity:1"
             path="c 0,-37.8805  0,-75.7609  0,-113.641" /></meshpatch></meshrow></meshgradient></defs><sodipodi:namedview
     pagecolor="#ffffff"
     bordercolor="#666666"
     borderopacity="1"
     objecttolerance="10"
     gridtolerance="10"
     guidetolerance="10"
     inkscape:pageopacity="0"
     inkscape:pageshadow="2"
     inkscape:window-width="1920"
     inkscape:window-height="1018"
     id="namedview31"
     showgrid="false"
     inkscape:zoom="2.6797386"
     inkscape:cx="158.1383"
     inkscape:cy="67.436291"
     inkscape:window-x="0"
     inkscape:window-y="34"
     inkscape:window-maximized="1"
     inkscape:current-layer="g39"
     units="mm"
     fit-margin-top="0"
     fit-margin-left="0"
     fit-margin-right="0"
     fit-margin-bottom="0" /><g
     id="g37"
     inkscape:groupmode="layer"
     inkscape:label="nobtio4"
     transform="matrix(1.3333333,0,0,-1.3333333,-467.12585,219.80025)"><g
       id="g39"><g
         id="g41"
         clip-path="url(#clipPath45)"
         transform="matrix(1.5493314,0,0,1.5493314,-140.93418,-247.14862)"
         style="fill:url(#meshgradient120);fill-opacity:1"><g
           id="g71"
           transform="matrix(0.28398378,0,0,0.28398097,337.65712,223.6051)"
           style="fill:url(#meshgradient204);fill-opacity:1"><path
             d="m 16.779767,11.754182 c 0.02126,0.124724 0.347244,3.194645 0.477638,4.369606 l 33.216378,8.95748 1.425827,0.508819 -0.491811,1.432914 c -0.02692,0.07653 -0.05386,0.15307 -0.07511,0.232441 -0.904252,3.351968 1.087086,6.811653 4.437638,7.715905 0.398267,0.107717 0.809291,0.175748 1.221732,0.20126 l 1.726299,0.114797 -1.148031,4.257638 -1.067245,3.95433 -0.737007,2.736851 -2.500158,9.270709 -1.28126,4.749447 -1.547716,-0.766771 C 50.20875,59.376222 49.966387,59.305356 49.728277,59.2189 c -0.153071,-0.05245 -0.29622,-0.128976 -0.450708,-0.170079 -3.350552,-0.904252 -6.811654,1.087086 -7.715906,4.437637 -0.02125,0.07937 -0.03685,0.157323 -0.07795,0.365669 l -0.304725,1.472599 -14.15622,-3.818268 -2.738268,-0.738425 -4.288819,-1.156536 -29.9933857,-8.087243 -1.4244093,-0.508818 0.491811,-1.434331 c 0.02692,-0.07511 0.05386,-0.151654 0.0737,-0.231024 0.9042516,-3.350551 -1.087087,-6.811653 -4.437638,-7.714488 -0.396851,-0.107717 -0.807874,-0.175748 -1.22315,-0.202677 l -1.723464,-0.116221 6.732283,-24.963307 1.5462994,0.765354 c 0.3741732,0.184252 0.7653543,0.333071 1.1607874,0.43937 2.2209448,0.599528 4.4716535,-0.09213 6.0122834,-1.585984 -1.6214173,-3.42 -3.9401575,-6.1965353 -7.0285039,-8.3650393 -2.1401573,-1.4031496 -4.4872443,3.3590553 -5.1533863,5.1703933 l -0.653385,1.773071 -8.503937,31.532599 c -0.813544,3.020315 0.970866,6.127087 3.988346,6.946299 l 39.077008,10.503779 4.291654,1.1537 2.73685,0.734174 22.342677,6.008031 0.671811,0.178583 c 0.05527,0.01417 0.110551,0.01417 0.165827,0.02835 1.072913,0.250867 2.141575,0.120479 3.085512,-0.294803 1.316693,-0.581102 2.379685,-1.710708 2.783622,-3.211653 l 3.169134,-11.793542 0.813543,-3.025985 1.554803,-5.782677 0.735591,-2.73685 1.062992,-3.955749 2.677323,-9.960945 c 0.386929,-1.441417 0.07512,-2.894173 -0.702993,-4.037952 -0.659067,-1.544886 -1.971508,-2.79213 -3.71765,-3.262682 z m 1.924725,13.894015 c 1.581732,-0.194173 3.224409,-0.102047 4.855747,0.338741 3.710552,1.00063 6.590552,3.556063 8.148189,6.769134 1.291182,2.668818 1.676693,5.788346 0.846142,8.868189 -0.334488,1.241574 -0.846142,2.388189 -1.493858,3.425669 -0.925512,1.48252 -2.137323,2.73685 -3.537638,3.710551 -1.537795,1.068662 -3.302362,1.790079 -5.170393,2.108977 -1.758898,0.297637 -3.602835,0.243779 -5.435433,-0.250867 C 12.213153,49.350087 8.8370901,45.594182 7.8109484,41.14804 4.9607121,40.463473 2.0963027,38.401268 1.0914208,33.155757 c -0.56692913,-2.952284 -1.02188976,-5.94 -1.46409449,-8.821418 l -0.0708661,-0.47622 c -0.28062992,-1.829764 -0.68456701,-3.534804 -1.21322841,-5.120788 -2.2053546,1.651181 -5.1335435,2.300315 -7.9724412,1.533544 l -5.0173226,18.605197 c 0.03118,0.0071 0.05953,0.01417 0.09071,0.02125 4.546772,1.227402 7.3672445,5.699055 6.6387406,10.251496 l 28.6497644,7.725827 4.290236,1.156536 2.73685,0.738425 11.364095,3.064251 c 1.668188,-4.328497 6.385039,-6.82582 10.981417,-5.496371 l 2.923937,-10.838268 0.737008,-2.738267 1.067244,-3.954331 0.289134,-1.074331 C 50.53331,36.479379 47.660397,32.038906 48.39457,27.456701 L 17.730791,19.18804 c 0.350079,2.157165 0.683149,4.291653 0.973701,6.460157 m -4.454646,15.030709 c -0.450709,0.214016 -0.934016,0.394016 -1.437165,0.530079 l -0.541418,0.110551 c -0.442204,0.06095 -0.925512,0.106306 -1.437165,0.12189 1.020472,3.045827 3.495118,5.541732 6.821575,6.440315 1.887874,0.508819 3.794173,0.425197 5.534645,-0.120466 3.128032,-0.980788 5.711811,-3.480945 6.627402,-6.875433 0.702992,-2.607874 0.290551,-5.256851 -0.941103,-7.44378 -1.261417,-2.240787 -3.381732,-3.998268 -6.054802,-4.718268 -1.301103,-0.350078 -2.614961,-0.422362 -3.874961,-0.255118 0.308976,4.453229 0.246614,9.868819 -4.697008,12.210237 M 63.934098,92.493394 C 63.766854,91.369457 63.511736,89.619063 63.286381,88.078433 L 30.313783,79.184732 28.887956,78.677331 29.381184,77.243 c 0.02694,-0.07654 0.05386,-0.150236 0.07512,-0.229606 0.749764,-2.780788 -0.511654,-5.611182 -2.868662,-7.021418 L 23.071269,69.046622 22.121663,68.791504 17.83001,67.63922 16.183081,73.74363 c -0.552756,2.049449 0.110551,4.122992 1.525039,5.511968 0.673228,0.657638 1.499528,1.176378 2.471811,1.44 z M 61.900239,78.78363 61.888901,78.636228 c -1.522205,0.16441 -3.095433,0.06662 -4.660158,-0.355748 -1.831181,-0.493228 -3.452598,-1.373386 -4.823149,-2.515748 -1.444252,0.355748 -2.994803,0.365669 -4.529764,-0.05102 L 31.548271,71.32568 c 0.822047,1.65685 1.153701,3.560315 0.846142,5.483622 l 30.438425,8.209134 C 62.49835,82.942058 62.176617,80.882688 61.900239,78.783633 m 4.498583,-14.728819 c 0.452126,-0.212599 0.935433,-0.391181 1.438583,-0.530079 l 0.54,-0.110551 c 0.520157,-0.06945 1.102677,-0.11481 1.713543,-0.12189 -0.917008,-3.254173 -3.46252,-5.964093 -6.957638,-6.906613 -0.175748,-0.04677 -0.352913,-0.07511 -0.528661,-0.114797 l -3.485197,12.964248 c -0.588189,2.189764 -1.95874,3.994016 -3.733228,5.194488 0.786614,0.480473 1.648346,0.86315 2.580945,1.114016 1.242992,0.335906 2.495905,0.409606 3.703464,0.270709 -0.267874,-4.361103 -0.04678,-9.497481 4.728189,-11.759528 m 13.159843,7.524567 c 0.565511,2.953701 1.021889,5.938583 1.462677,8.824252 l 0.07229,0.474803 c 0.262204,1.712126 0.642047,3.306615 1.122519,4.806142 2.215276,-1.798583 5.229922,-2.542677 8.202048,-1.683779 l 5.015899,-18.605197 c -4.589292,-1.254331 -7.462205,-5.694804 -6.728032,-10.27559 l -24.049134,-6.485669 -1.316693,4.901102 c 0.177166,0.03826 0.354331,0.0652 0.531497,0.114797 4.885511,1.316693 8.331023,5.319213 9.204094,9.98929 2.770866,0.744095 5.506299,2.838898 6.482835,7.939843 M 90.467799,97.12804 c 2.13874,1.404566 4.485826,-3.359056 5.153385,-5.170394 l 0.702992,-1.909134 8.593224,-31.862834 c 0.53008,-1.964409 -0.0538,-3.954331 -1.34645,-5.339055 -0.50032,-0.385512 -1.08,-0.681732 -1.72772,-0.85748 l -35.520943,-9.549922 -0.929764,3.458268 25.392756,6.847087 1.425827,0.507401 -0.491811,1.434331 c -0.02694,0.07653 -0.05386,0.151654 -0.07511,0.231024 -0.902835,3.350551 1.087086,6.813069 4.437638,7.715904 0.39685,0.107717 0.807874,0.174331 1.221732,0.202677 l 1.726299,0.111975 -6.733701,24.970394 -1.549134,-0.766772 c -0.371338,-0.185669 -0.761102,-0.333071 -1.157952,-0.440787 -2.342835,-0.632126 -4.718268,0.171496 -6.257481,1.843937 1.624252,3.517795 3.984095,6.360945 7.136221,8.573386 m 11.317323,7.200004 c -0.0666,-0.30048 -0.1389,-0.61654 -0.21118,-0.92977 -0.75685,-3.28393 -1.797167,-7.137636 -2.072127,-10.010549 -2.551182,6.932129 -6.338268,9.863149 -10.455591,7.765509 -1.359213,-0.87023 -2.554016,-1.846769 -3.666614,-2.875745 -0.290551,-0.269292 -0.605197,-0.520158 -0.880158,-0.797953 -1.394645,-1.417323 -2.568189,-2.976378 -3.571653,-4.644567 -0.653386,-1.085669 -1.225984,-2.21811 -1.724882,-3.400158 -1.034646,-2.453385 -1.765984,-5.099527 -2.198268,-7.932756 -0.467716,-3.052913 -0.928346,-6.111496 -1.508031,-9.143149 -0.351496,-1.839685 -0.983622,-3.401575 -2.375433,-4.251969 -0.70441,-0.429449 -1.602992,-0.67748 -2.762363,-0.685984 -0.43937,-0.0029 -0.911338,0.02409 -1.428661,0.09497 -2.887087,0.790866 -3.313701,3.558897 -3.191811,6.888189 0.03685,0.997795 0.120466,2.045197 0.205512,3.108189 0.01984,0.242362 0.03969,0.486142 0.0581,0.729921 0.351496,2.653229 0.769606,5.282362 1.208976,7.956851 0.165827,1.017637 1.036063,6.467244 1.206142,7.503307 0.211181,1.386142 0.41811,2.80063 0.610866,4.264724 -4.898268,-1.601575 -9.134646,-2.987716 -13.789134,-4.508504 0.890079,4.953544 4.073386,7.993694 6.759213,11.172754 3.044409,3.60142 6.454488,6.95339 10.024724,10.04173 2.57811,2.23229 5.168977,4.41355 7.12063,7.30914 0.147402,0.21826 0.300473,0.43086 0.440787,0.65763 -14.615433,8.18786 -31.885511,11.91258 -49.736692,9.57117 -44.024882,-5.77701 -75.142205,-46.294011 -69.365197,-90.317475 2.084882,-15.892441 8.712283,-30.086929 18.382677,-41.48645696 0.0652,0.30188976 0.138897,0.61795276 0.209764,0.92834646 0.75685,3.2867717 1.798582,7.1404724 2.072126,10.0133855 2.552598,-6.9321256 6.339685,-9.8631493 10.4570075,-7.7683461 1.0403149,0.6675591 1.98,1.3988977 2.8743307,2.1585827 0.5768504,0.4932283 1.1508661,0.987874 1.6710236,1.5179527 1.224567,1.2429921 2.2748034,2.5979527 3.19606327,4.0365357 0.73700787,1.150866 1.38614173,2.358425 1.94314963,3.625511 1.1225197,2.556851 1.9020472,5.334804 2.3570078,8.314016 0.4677166,3.054331 0.9283465,6.110079 1.5080315,9.144567 0.3571654,1.869449 1.0034646,3.451181 2.4477166,4.293071 0.7100787,0.413859 1.615748,0.644882 2.7765354,0.639213 0.416693,0 0.85748,-0.02551 1.342205,-0.09071 2.991968,-0.819212 3.343464,-3.764409 3.17622,-7.25811 -0.04819,-1.006299 -0.13748,-2.057953 -0.221102,-3.11811 -0.0085,-0.117632 -0.01843,-0.233859 -0.02693,-0.351496 -0.374171,-2.82756 -0.826296,-5.625355 -1.29543,-8.484095 C 13.185437,16.992609 12.323704,11.543003 12.155043,10.50694 11.970791,9.2866226 11.790791,8.0492997 11.620712,6.7680399 16.520397,8.3681974 20.755358,9.7571738 25.411263,11.276544 24.519767,6.3258352 21.337878,3.2828431 18.652051,0.10237062 15.606224,-3.4990466 12.19898,-6.8510155 8.6273263,-9.939362 6.0477988,-12.168811 3.4569326,-14.351488 1.5038617,-17.245661 1.3564602,-17.463929 1.2048066,-17.676527 1.065909,-17.903299 c 14.612598,-8.18929 31.885512,-11.914015 49.735275,-9.572597 44.024882,5.777006 75.142206,46.295432 69.365196,90.32173 -2.08488,15.889607 -8.7137,30.082678 -18.38126,41.482206"
             style="fill:#00a79d;fill-opacity:1;fill-rule:nonzero;stroke:none;stroke-width:1.41732287"
             id="path73"
             inkscape:connector-curvature="0" /></g></g><text
         xml:space="preserve"
         style="font-style:normal;font-variant:normal;font-weight:normal;font-stretch:normal;font-size:54.08782196px;line-height:1.25;font-family:Comfortaa;-inkscape-font-specification:'Comfortaa, Normal';font-variant-ligatures:normal;font-variant-caps:normal;font-variant-numeric:normal;font-feature-settings:normal;text-align:start;letter-spacing:0px;word-spacing:0px;writing-mode:lr-tb;text-anchor:start;fill:#00a79d;fill-opacity:1;stroke:none;stroke-width:0.98987466"
         x="449.68356"
         y="-111.14692"
         id="text195"
         transform="scale(0.99504338,-1.0049813)"><tspan
           sodipodi:role="line"
           id="tspan193"
           x="449.68356"
           y="-111.14692"
           style="font-style:normal;font-variant:normal;font-weight:normal;font-stretch:normal;font-size:54.08782196px;font-family:Comfortaa;-inkscape-font-specification:'Comfortaa, Normal';font-variant-ligatures:normal;font-variant-caps:normal;font-variant-numeric:normal;font-feature-settings:normal;text-align:start;writing-mode:lr-tb;text-anchor:start;fill:#00a79d;fill-opacity:1;stroke-width:0.98987466">nobt.io</tspan></text>
<text
         xml:space="preserve"
         style="font-style:normal;font-variant:normal;font-weight:normal;font-stretch:normal;font-size:13.94153309px;line-height:1.25;font-family:sans-serif;-inkscape-font-specification:'sans-serif, Normal';font-variant-ligatures:normal;font-variant-caps:normal;font-variant-numeric:normal;font-feature-settings:normal;text-align:start;letter-spacing:0px;word-spacing:0px;writing-mode:lr-tb;text-anchor:start;fill:#000000;fill-opacity:1;stroke:none;stroke-width:1.30701876"
         x="449.01239"
         y="-93.708344"
         id="text1011"
         transform="scale(1,-1)"><tspan
           sodipodi:role="line"
           id="tspan1009"
           x="449.01239"
           y="-93.708344"
           style="font-style:normal;font-variant:normal;font-weight:normal;font-stretch:normal;font-size:13.94177341px;font-family:Comfortaa;-inkscape-font-specification:'Comfortaa, Normal';font-variant-ligatures:normal;font-variant-caps:normal;font-variant-numeric:normal;font-feature-settings:normal;text-align:start;writing-mode:lr-tb;text-anchor:start;stroke-width:1.30701876">Split your bills with ease</tspan></text>
</g></g></svg>