<?xml version="1.0" encoding="UTF-8" standalone="no"?>
<!-- Created with Inkscape (http://www.inkscape.org/) -->

<svg
   xmlns:dc="http://purl.org/dc/elements/1.1/"
   xmlns:cc="http://creativecommons.org/ns#"
   xmlns:rdf="http://www.w3.org/1999/02/22-rdf-syntax-ns#"
   xmlns:svg="http://www.w3.org/2000/svg"
   xmlns="http://www.w3.org/2000/svg"
   xmlns:sodipodi="http://sodipodi.sourceforge.net/DTD/sodipodi-0.dtd"
   xmlns:inkscape="http://www.inkscape.org/namespaces/inkscape"
   width="2048"
   height="2048"
   viewBox="0 0 541.86664 541.86668"
   version="1.1"
   id="svg346"
   inkscape:export-filename="/home/thomas/Pictures/Nobt/logo.png"
   inkscape:export-xdpi="96"
   inkscape:export-ydpi="96"
   inkscape:version="0.92.2 (5c3e80d, 2017-08-06)"
   sodipodi:docname="logo.svg">
  <defs
     id="defs340" />
  <sodipodi:namedview
     id="base"
     pagecolor="#ffffff"
     bordercolor="#666666"
     borderopacity="1.0"
     inkscape:pageopacity="0.0"
     inkscape:pageshadow="2"
     inkscape:zoom="0.35"
     inkscape:cx="374.28571"
     inkscape:cy="1017.1429"
     inkscape:document-units="mm"
     inkscape:current-layer="layer1"
     showgrid="false"
     units="px"
     inkscape:window-width="1920"
     inkscape:window-height="1018"
     inkscape:window-x="0"
     inkscape:window-y="34"
     inkscape:window-maximized="1"
     fit-margin-top="0"
     fit-margin-left="0"
     fit-margin-right="0"
     fit-margin-bottom="0" />
  <metadata
     id="metadata343">
    <rdf:RDF>
      <cc:Work
         rdf:about="">
        <dc:format>image/svg+xml</dc:format>
        <dc:type
           rdf:resource="http://purl.org/dc/dcmitype/StillImage" />
        <dc:title></dc:title>
      </cc:Work>
    </rdf:RDF>
  </metadata>
  <g
     inkscape:label="Layer 1"
     inkscape:groupmode="layer"
     id="layer1"
     transform="translate(-5.5343454e-8,244.86669)">
    <path
       d="m 191.725,162.69756 c 0.0676,-0.41903 1.16782,-10.74753 1.60683,-14.7005 l 111.74981,-30.13501 4.79699,-1.71185 -1.65468,-4.82052 c -0.0946,-0.25679 -0.18112,-0.51499 -0.25276,-0.78262 -3.04215,-11.276802 3.65728,-22.915992 14.92958,-25.958212 1.33948,-0.3624 2.72275,-0.59067 4.11021,-0.67719 l 5.80787,-0.38639 -3.86232,-14.32367 -3.5905,-13.30328 -2.47959,-9.20739 -8.41128,-31.18888 -4.31052,-15.97827009 -5.20694,2.57954999 c -0.76774,0.3812 -1.58304,0.62039 -2.38416,0.91099 -0.51498,0.1756 -0.99616,0.43387 -1.51627,0.57175 -11.27231,3.04206 -22.91644,-3.65721999 -25.95872,-14.9293299 -0.0676,-0.2676 -0.12164,-0.52983 -0.26224,-1.22998 l -1.02589,-4.95407 -47.62571,12.8455299 -9.21238,2.48427 -14.4288,3.89077 -100.90681,27.2073901 -4.792106,1.71185 1.65468,4.82539 c 0.0946,0.2528 0.18112,0.50959 0.24736,0.77719 3.042136,11.27212 -3.65728,22.91603 -14.92958,25.95337 -1.33542,0.36239 -2.71789,0.59067 -4.11508,0.68259 l -5.79814,0.39079 22.64935,83.982572 5.202196,-2.57484 c 1.25838,-0.62039 2.57489,-1.1205 3.90531,-1.47813 7.47189,-2.01704 15.04393,0.30959 20.22707,5.33566 -5.45496,11.50564 -13.25584,20.84655 -23.64592,28.1419 -7.200196,4.72055 -15.096496,-11.3006 -17.337526,-17.39437 l -2.19817,-5.96485 -28.60984,-106.083172 c -2.73694,-10.16106 3.26625,-20.61299 13.41804,-23.36894 l 131.466646,-35.33728 14.43839,-3.88129 9.20766,-2.46996 75.16746,-20.21251 2.26008,-0.60011 c 0.18652,-0.054 0.37172,-0.054 0.55823,-0.0948 3.6097,-0.84338 7.20493,-0.40547 10.38062,0.9921 4.42975,1.95497 8.00606,5.75534 9.365,10.80485 l 10.66189,39.67624 2.73695,10.1801 5.23086,19.45441 2.47473,9.20735 3.57617,13.30804 9.00736,33.51096 c 1.30163,4.849352 0.25276,9.736822 -2.36511,13.584712 -2.21724,5.19739 -6.63265,9.39335 -12.50717,10.97652 z m 6.47532,-46.7428 c 5.32141,0.65283 10.84788,0.34319 16.33623,-1.13942 12.48337,-3.36634 22.17248,-11.96342 27.41295,-22.772992 4.34391,-8.97856 5.64081,-19.47333 2.84655,-29.8347 -1.12591,-4.17692 -2.84655,-8.03445 -5.02567,-11.52471 -3.11379,-4.98763 -7.19061,-9.20752 -11.90176,-12.48318 -5.17356,-3.59529 -11.11011,-6.02225 -17.39471,-7.09515 -5.9175,-1.00158 -12.12099,-0.82046 -18.28639,0.84339 -15.82597,4.2676 -27.18411,16.90333 -30.63635,31.86118 -9.58909,2.30316 -19.22577,9.24087 -22.60649,26.88804 -1.90731,9.932102 -3.43792,19.983522 -4.92567,29.677342 l -0.23788,1.60209 c -0.94479,6.15581 -2.30306,11.89195 -4.08168,17.22757 -7.41945,-5.55502 -17.27077,-7.73882 -26.82161,-5.15923 L 85.997964,71.452558 c 0.10812,-0.028 0.20004,-0.054 0.30548,-0.0676 15.296676,-4.1292 24.785616,-19.17297 22.334686,-34.48845 l 96.38637,-25.99149 14.43365,-3.8909301 9.20754,-2.48412 38.23231,-10.30893 c 5.61229,14.56205 21.48113,22.9637401 36.94473,18.4911001 l 9.837,36.46263 2.47945,9.21207 3.59064,13.30332 0.97318,3.61437 c -15.43981,4.21501 -25.10514,19.1539 -22.63515,34.569542 l -103.16216,27.81766 c 1.17728,-7.25711 2.29834,-14.4381 3.27585,-21.73349 M 183.21479,65.391348 c -1.51628,-0.72042 -3.14231,-1.32593 -4.8351,-1.78332 l -1.82148,-0.3716 c -1.48761,-0.20559 -3.11365,-0.35799 -4.83496,-0.40951 3.43317,-10.2469 11.75862,-18.6437 22.94982,-21.66673 6.35138,-1.71185 12.76465,-1.43041 18.6201,0.40547 10.52362,3.29958 19.21632,11.71071 22.29658,23.13067 2.36511,8.77348 0.97724,17.68524 -3.16609,25.04266 -4.24376,7.53851 -11.37719,13.451042 -20.37021,15.873282 -4.3773,1.17726 -8.79745,1.42097 -13.03646,0.85826 1.03941,-14.981612 0.8299,-33.201042 -15.8022,-41.078142 M 350.36752,-108.92387 c -0.56228,3.7813 -1.42098,9.670028 -2.17912,14.853058 l -110.92978,29.92054 -4.79684,1.70697 1.65941,4.82539 c 0.0946,0.258 0.18112,0.50551 0.25276,0.77315 2.52244,9.35523 -1.72146,18.87738 -9.65115,23.62169 l -11.83012,3.1805 -3.19474,0.85827 -14.43839,3.87645 -5.54079,-20.53663 c -1.85959,-6.89488 0.37172,-13.87071 5.1307,-18.54355 2.26495,-2.21244 5.04487,-3.95768 8.31598,-4.84459 z m -6.84256,46.122938 -0.0405,0.49603 c -5.12111,-0.55283 -10.414,-0.2244 -15.67812,1.19617 -6.16065,1.65937 -11.61561,4.6204 -16.22661,8.46357 -4.85888,-1.19618 -10.07541,-1.22998 -15.23937,0.1716 l -54.93078,14.76237 c 2.76559,-5.57394 3.88137,-11.97778 2.84655,-18.4481 l 102.404,-27.61751 c -1.12592,6.98544 -2.20777,13.91355 -3.13757,20.97535 m 15.13463,49.55118 c 1.52113,0.71499 3.14702,1.31646 4.83982,1.78333 l 1.81674,0.37159 c 1.74998,0.234 3.70972,0.3868 5.7649,0.40956 -3.08512,10.94783991 -11.64901,20.0646299 -23.40762,23.23554 -0.59068,0.15679 -1.18675,0.25279 -1.77864,0.38639 l -11.72523,-43.61485 c -1.97881,-7.36687 -6.5898,-13.43688 -12.5596,-17.47553 2.64638,-1.61637 5.54552,-2.90379 8.68296,-3.74773 4.18184,-1.12998 8.39708,-1.37814 12.45957,-0.91102 -0.90154,14.67169 -0.1568,31.95174 15.9071,39.56176 m 44.27358,-25.31434 c 1.9026,-9.93694 3.43804,-19.9788 4.92092,-29.68695 l 0.2432,-1.59737 c 0.8826,-5.75989 2.16004,-11.1242 3.77648,-16.16899 7.45284,6.05094 17.59504,8.55413 27.59408,5.66462 l 16.875,62.59227 c -15.43972,4.21989 -25.10504,19.1588199 -22.63504,34.56954 l -80.90856,21.81933 -4.42974,-16.48839 c 0.59608,-0.13519 1.19215,-0.21879 1.7881,-0.38679 16.43638,-4.42964 28.02807,-17.8951601 30.96533,-33.60635 9.32202,-2.50336 18.52495,-9.55067 21.81023,-26.71152 m 36.7016,-85.951728 c 7.19532,-4.72528 15.09164,11.30059 17.33752,17.39436 l 2.36512,6.42277 28.91016,107.1941879 c 1.78336,6.6087601 -0.1812,13.3033201 -4.52992,17.9617901 -1.6832,1.29758 -3.63348,2.29356 -5.8126,2.88479 l -119.50296,32.12826 -3.12811,-11.63447 85.42883,-23.03526 4.79704,-1.70693 -1.65468,-4.82544 c -0.0948,-0.25679 -0.1812,-0.51091 -0.2528,-0.77718 -3.0374,-11.2720801 3.65728,-22.9207501 14.9296,-25.9580901 1.3354,-0.3624 2.71788,-0.58663 4.1102,-0.68259 l 5.80788,-0.3772 -22.65424,-84.0063599 -5.2118,2.57959 c -1.24892,0.62443 -2.56056,1.1205 -3.89568,1.48286 -7.882,2.12664 -15.8736,-0.57715 -21.052,-6.20341 5.46444,-11.834628 13.40372,-21.399778 24.00844,-28.842838 m 38.07484,-24.22253 c -0.2244,1.01102 -0.46768,2.07421 -0.71096,3.12791 -2.54636,11.048 -6.04632,24.01272 -6.97128,33.67791 -8.58296,-23.32138 -21.32388,-33.182 -35.17572,-26.12505 -4.57288,2.92763 -8.59248,6.21297 -12.33564,9.67475 -0.97724,0.90558 -2.03612,1.7498 -2.96116,2.68447 -4.69196,4.76823 -8.64012,10.01318 -12.01612,15.6254 -2.19816,3.65245 -4.12456,7.46226 -5.803,11.438988 -3.48088,8.25365 -5.94128,17.15597 -7.39551,26.6876 -1.57358,10.27082 -3.12338,20.56055 -5.07353,30.75973 -1.18269,6.1892 -3.30923,11.44375 -7.99173,14.30474 -2.36983,1.44473 -5.39292,2.27908 -9.29335,2.30776 -1.47816,0.008 -3.06608,-0.0812 -4.80646,-0.3188 -9.71304,-2.66067 -11.14834,-11.97306 -10.73826,-23.1735 0.12164,-3.3569 0.40549,-6.88056 0.69205,-10.45669 0.0676,-0.81503 0.13516,-1.63557 0.196,-2.4556 1.18269,-8.92612 2.58921,-17.77124 4.06737,-26.76883 0.55822,-3.4235 3.48562,-21.757248 4.0579,-25.242828 0.71096,-4.66336 1.40652,-9.42199 2.05504,-14.34758 -16.47924,5.3881 -30.73164,10.05134 -46.3907,15.16772 2.99443,-16.6649 13.70404,-26.89275 22.74005,-37.58784 10.24221,-12.11602 21.71469,-23.39286 33.72607,-33.78275 8.67349,-7.50998 17.38997,-14.84821 23.95598,-24.58976 0.49608,-0.7339 1.01104,-1.44945 1.48292,-2.21244 -49.17078,-27.54598 -107.27253,-40.07687 -167.32914,-32.19977 C 87.575074,-223.11085 -17.112816,-86.801942 2.3227338,61.303468 9.3369538,114.76946 31.633534,162.52308 64.167584,200.87379 c 0.21896,-1.01506 0.46767,-2.07892 0.70556,-3.12318 2.54623,-11.05745 6.0509,-24.02233 6.97124,-33.68748 8.58766,23.32138 21.32866,33.18196 35.180436,26.13465 3.49994,-2.24588 6.66144,-4.70623 9.67019,-7.26199 1.9407,-1.65941 3.87179,-3.3235 5.62176,-5.10683 4.11981,-4.18164 7.65314,-8.74012 10.75259,-13.57987 2.47946,-3.87169 4.66331,-7.93426 6.53736,-12.19698 3.7765,-8.60185 6.39895,-17.9476 7.92968,-27.97042 1.57346,-10.27541 3.12311,-20.55566 5.0734,-30.764482 1.20161,-6.28921 3.376,-11.61051 8.23489,-14.44286 2.38889,-1.3923 5.43577,-2.1696 9.34107,-2.15056 1.40193,0 2.88481,0.0812 4.51557,0.30559 10.06582,2.75611 11.24838,12.66441 10.68582,24.418082 -0.1622,3.38542 -0.46225,6.9234 -0.7434,10.49005 -0.0268,0.396 -0.0676,0.78667 -0.0946,1.18266 -1.25838,9.51259 -2.77992,18.9251 -4.35824,28.54257 -0.56228,3.41406 -3.46182,21.7478 -4.02925,25.23334 -0.6204,4.10545 -1.22594,8.26801 -1.79769,12.57858 16.48411,-5.38335 30.73178,-10.05614 46.39557,-15.16773 -2.99929,16.65534 -13.70404,26.89279 -22.74005,37.5926 -10.24708,12.11606 -21.70996,23.39286 -33.72607,33.78275 -8.67836,7.50043 -17.39484,14.84349 -23.96558,24.58016 -0.49606,0.7339 -1.00562,1.44961 -1.47329,2.21244 49.16116,27.55074 107.27236,40.08159 167.32426,32.2045 C 454.29161,275.24405 558.97949,138.93043 539.54393,-9.1844221 532.52973,-62.640982 510.22841,-110.38976 477.70397,-148.74047"
       style="fill:#00a79d;fill-opacity:1;fill-rule:nonzero;stroke:none;stroke-width:4.7682538"
       id="path73"
       inkscape:connector-curvature="0" />
  </g>
</svg>
