<?xml version="1.0" encoding="UTF-8" standalone="no"?>
<!-- Created with Inkscape (http://www.inkscape.org/) -->

<svg
   xmlns:dc="http://purl.org/dc/elements/1.1/"
   xmlns:cc="http://creativecommons.org/ns#"
   xmlns:rdf="http://www.w3.org/1999/02/22-rdf-syntax-ns#"
   xmlns:svg="http://www.w3.org/2000/svg"
   xmlns="http://www.w3.org/2000/svg"
   xmlns:sodipodi="http://sodipodi.sourceforge.net/DTD/sodipodi-0.dtd"
   xmlns:inkscape="http://www.inkscape.org/namespaces/inkscape"
   width="2048"
   height="2048"
   viewBox="0 0 541.86664 541.86668"
   version="1.1"
   id="svg5562"
   inkscape:version="0.92.2 (5c3e80d, 2017-08-06)"
   sodipodi:docname="logo.svg">
  <defs
     id="defs5556" />
  <sodipodi:namedview
     id="base"
     pagecolor="#ffffff"
     bordercolor="#666666"
     borderopacity="1.0"
     inkscape:pageopacity="0.0"
     inkscape:pageshadow="2"
     inkscape:zoom="0.35"
     inkscape:cx="900"
     inkscape:cy="1017.1429"
     inkscape:document-units="mm"
     inkscape:current-layer="layer1"
     showgrid="false"
     units="px"
     inkscape:window-width="1920"
     inkscape:window-height="1018"
     inkscape:window-x="0"
     inkscape:window-y="34"
     inkscape:window-maximized="1"
     fit-margin-top="0"
     fit-margin-left="0"
     fit-margin-right="0"
     fit-margin-bottom="0" />
  <metadata
     id="metadata5559">
    <rdf:RDF>
      <cc:Work
         rdf:about="">
        <dc:format>image/svg+xml</dc:format>
        <dc:type
           rdf:resource="http://purl.org/dc/dcmitype/StillImage" />
        <dc:title></dc:title>
      </cc:Work>
    </rdf:RDF>
  </metadata>
  <g
     inkscape:label="Layer 1"
     inkscape:groupmode="layer"
     id="layer1"
     transform="translate(0,244.86667)">
    <path
       d="m 422.55291,72.719477 v -88.04459 c -15.57676,0.2844 -29.07207,-8.0972 -36.36319,-20.54544 -3.66302,5.84504 -7.04122,12.16776 -10.0908,19.10828 l -0.89799,2.04624 c -5.31939,12.1370797 -10.83141,24.6904797 -16.78163,36.95028 -7.97461,16.48371 -19.42369,24.95775 -33.97513,25.29955 -7.85624,22.91164 -29.55845,39.45224 -55.10326,39.45224 -8.55738,0 -16.66774,-1.90604 -24.00258,-5.2316 -3.98731,9.5212 -8.0972,18.805963 -12.37812,28.292123 h 147.68705 c 2.21268,-21.088803 20.16853,-37.257043 41.90589,-37.327083"
       style="fill:#00a79d;fill-opacity:1;fill-rule:nonzero;stroke:none;stroke-width:4.38162899"
       id="path5495"
       inkscape:connector-curvature="0" />
    <path
       d="m 294.32196,-23.873673 1.29259,-3.5798 c 3.53595,-8.52228 7.18157,-16.80356 10.9278,-25.18124 H 158.03597 c -2.19518,20.9398 -19.97144,37.31408 -41.48521,37.31408 -0.14024,0 -0.27612,0 -0.42068,-0.004 v 88.04459 c 15.23491,-0.004 28.76976,8.1674 36.18347,20.4272 5.00381,-7.18148 9.49059,-15.23064 13.45157,-24.24796 l 0.82372,-1.87536 c 5.35434,-12.19856 10.89271,-24.80884 16.85611,-37.12128 7.80805,-16.12439 18.96366,-24.6947903 32.92349,-25.3564303 9.20137,-20.1029997 29.45772,-34.1285997 52.9738,-34.1285997 8.95172,0 17.39954,2.09008 24.97969,5.70928"
       style="fill:#00a79d;fill-opacity:1;fill-rule:nonzero;stroke:none;stroke-width:4.38162899"
       id="path5499"
       inkscape:connector-curvature="0" />
    <path
       d="m 249.82084,69.548437 c 5.92401,2.84376 12.52716,4.48252 19.52019,4.48252 18.96364,0 35.22387,-11.71652 41.97595,-28.29228 -2.34422,-0.662 -4.73215,-1.44596 -7.22964,-2.48444 l -1.83151,-0.91164 c -21.67152,-12.676 -18.22761,-34.7200703 -12.15468,-53.89403 -6.23066,-3.22048 -13.27189,-5.07832 -20.76012,-5.07832 -16.80796,0 -31.48199,9.2232397 -39.30755,22.8501597 2.51946,0.68808 5.08712,1.54236 7.738,2.651 l 1.8402,0.91164 c 23.92805,13.9992803 17.2505,39.4127103 10.20916,59.7653903"
       style="fill:#00a79d;fill-opacity:1;fill-rule:nonzero;stroke:none;stroke-width:4.38162899"
       id="path5503"
       inkscape:connector-curvature="0" />
    <path
       d="m 443.42555,-80.466793 c -0.42976,0.036 -0.84584,0.036 -1.31008,0.1244 -6.59868,2.16016 -12.9126,4.92048 -18.79276,8.22428 l -0.324,0.3204 -1.77896,0.90668 c -9.99888,5.93704 -18.74456,13.54368 -26.38618,22.88964 3.79889,11.44924 14.5821,19.73488 27.29322,19.73488 1.87088,0 3.77256,-0.1888 5.6304,-0.55644 l 7.74236,-1.54672 v 118.16387 l -7.74236,-1.5554 c -1.85784,-0.3728 -3.75952,-0.5614 -5.6304,-0.5614 -15.8572,0 -28.75659,12.89944 -28.75659,28.756683 0,0.3764 0.0248,0.74024 0.0497,1.10912 l 0.45956,6.9142 -6.88796,0.54276 H 227.10637 c -2.56766,5.67412 -6.10386,12.98464 -8.71536,18.89104 l 65.56257,-0.1776 v 0 h 145.95629 c 14.30152,0 25.89528,-11.59816 25.89528,-25.9042 V -58.395233 c 0,-9.34596 -4.96428,-17.509 -12.38244,-22.0658"
       style="fill:#00a79d;fill-opacity:1;fill-rule:nonzero;stroke:none;stroke-width:4.38162899"
       id="path5507"
       inkscape:connector-curvature="0"
       sodipodi:nodetypes="ccccccsccccsscccccccsssc" />
    <path
       d="m 116.54944,85.671557 c -1.86657,0 -3.76381,0.1888 -5.63915,0.55644 l -7.72918,1.53804 v -118.14203 l 7.7467,1.54668 c 1.85782,0.3676 3.75506,0.55644 5.62163,0.55644 15.86586,0 28.76098,-12.89956 28.76098,-28.75232 0,-0.3724 -0.0224,-0.74024 -0.0484,-1.10788 l -0.4644,-6.90984 6.89229,-0.54276 h 160.68731 c 0.19748,-0.44216 0.39372,-0.87192 0.59121,-1.31444 2.58517,-5.69176 5.20537,-11.49744 7.82991,-17.39948 H 108.78082 c -14.31038,0 -25.90854,11.5938 -25.90854,25.89984 V 106.3628 c 2.09003,13.32896 6.80466,26.32052 14.66092,26.32052 0.68349,0 1.4284,-0.0744 2.2171,-0.206 6.87039,-2.24784 13.42529,-5.14404 19.51137,-8.62308 l 1.18304,-0.6968 c 8.53102,-5.02144 16.13752,-11.34404 22.97723,-18.89364 -4.11873,-10.844483 -14.59081,-18.591203 -26.8725,-18.591203"
       style="fill:#00a79d;fill-opacity:1;fill-rule:nonzero;stroke:none;stroke-width:4.38162899"
       id="path5511"
       inkscape:connector-curvature="0" />
    <path
       d="m 270.93332,261.94696 c -42.41413,0 -82.19924,-11.30468 -116.62566,-30.97384 2.74727,-1.34076 5.51208,-2.6684 8.26811,-4.00048 19.35802,-9.38108 38.3217,-20.10288 55.98403,-32.37148 15.57662,-10.8226 33.17762,-20.45784 42.94424,-41.20484 -22.29366,1.19608 -42.5674,2.30472 -66.02664,3.56664 2.92692,-7.0544 5.85385,-13.85036 8.77201,-20.44916 0.009,-0.024 0.026,-0.0496 0.0348,-0.0744 9.69648,-22.02192 19.19594,-41.984723 27.80573,-62.727363 7.36552,-20.96176 15.9009,-41.25308 -0.22356,-50.68235 -19.45872,-8.12356 -28.30961,0.53036 -34.62354,13.56551 -6.13866,12.66732 -11.77781,25.58004 -17.43448,38.47512 -11.66388,26.552683 -28.39293,47.667803 -51.77327,61.412963 -0.0348,0.012 -0.0609,0.036 -0.0882,0.062 -7.43562,4.36416 -15.5241,8.00096 -24.36184,10.81392 C 82.99143,151.72772 69.78958,134.3414 66.73121,100.81308 64.2074,107.5652 60.29023,115.36456 56.08825,123.269 42.61994,93.606517 35.05288,60.713637 35.05288,26.072487 c 0,-130.068847 105.80746,-235.880917 235.88033,-235.880917 42.40532,0 82.19925,11.30464 116.62574,30.97368 -2.74739,1.34524 -5.50334,2.66852 -8.25941,4.00484 -19.36681,9.3724 -38.33045,20.09852 -55.98399,32.36712 -15.58543,10.82264 -33.18644,20.45788 -42.95306,41.205 22.29366,-1.19608 42.5674,-2.30485 66.02672,-3.56229 -2.92698,7.050047 -5.85384,13.846007 -8.772,20.449047 -0.01,0.012 -0.0248,0.036 -0.0248,0.0744 -9.70539,22.02208 -19.20472,41.9892 -27.81463,62.72752 -7.36552,20.96607967 -15.89209,41.25304 0.22356,50.67799 19.45884,8.12788 28.30971,-0.5254 34.62359,-13.56119 6.14746,-12.6672803 11.77785,-25.57568 17.43445,-38.47512 11.66395,-26.55276 28.39292,-47.6678 51.77337,-61.4174 0.036,-0.012 0.062,-0.036 0.0868,-0.062 7.43556,-4.36412 15.52408,-8.0008 24.3618,-10.81392 20.59368,-4.36836 33.81304,13.01348 36.85392,46.5418 2.5238,-6.75644 6.43212,-14.55136 10.63416,-22.45596 13.469,29.66372 21.04492,62.5566397 21.04492,97.20228 0,130.068713 -105.81616,235.880913 -235.88036,235.880913 m 217.77036,-396.84903 c -16.02796,-21.6278 -35.18884,-40.7844 -56.81652,-56.80792 -45.02997,-33.37492 -100.72482,-53.158 -160.95458,-53.158 C 121.53749,-244.86791 0,-123.33027 0,26.066047 0,86.304757 19.77865,141.9996 53.16225,187.03852 69.18146,208.6618 88.3423,227.81836 109.96999,243.842 155.00871,277.2168 210.69474,297 270.93332,297 420.32915,297 541.86667,175.46224 541.86667,26.066047 c 0,-60.23872 -19.78736,-115.93368 -53.16224,-160.968117"
       style="fill:#00a79d;fill-opacity:1;fill-rule:nonzero;stroke:none;stroke-width:4.38162899"
       id="path5515"
       inkscape:connector-curvature="0" />
  </g>
</svg>
